<svg width="30" height="28" viewBox="0 0 30 28" fill="none" xmlns="http://www.w3.org/2000/svg">
<mask id="path-1-outside-1_33_154" maskUnits="userSpaceOnUse" x="0" y="-0.124329" width="30" height="28" fill="black">
<rect fill="white" y="-0.124329" width="30" height="28"/>
<path d="M15.392 24.1213C16.3776 24.0513 17.3501 23.894 18.3096 23.6495C19.4903 24.0033 20.736 24.0838 21.9524 23.8847C22.0007 23.8784 22.0493 23.8747 22.098 23.8735C22.532 23.8735 23.1018 24.1227 23.932 24.6477V23.7853C23.9322 23.635 23.9727 23.4876 24.0493 23.3583C24.1259 23.229 24.2357 23.1226 24.3674 23.0503C24.7286 22.8501 25.0646 22.6163 25.3712 22.3615C26.5808 21.3493 27.264 20.0011 27.264 18.5731C27.2635 18.1008 27.1884 17.6316 27.0414 17.1829C27.4054 16.5109 27.7022 15.8025 27.9192 15.0689C28.6192 16.1049 28.9972 17.3229 29 18.5731C29 20.5135 28.0844 22.3251 26.501 23.6481C26.2361 23.8684 25.9579 24.0723 25.668 24.2585V26.2773C25.668 26.9717 24.856 27.3693 24.2834 26.9577C23.7417 26.5576 23.181 26.1839 22.6034 25.8377C22.4373 25.7401 22.2647 25.654 22.0868 25.5801C21.6108 25.651 21.1264 25.6869 20.6336 25.6879C18.6568 25.6879 16.8298 25.1027 15.392 24.1213ZM4.9396 20.0809C2.442 17.9949 1 15.1445 1 12.0953C1 5.85967 6.9612 0.875671 14.2398 0.875671C21.5184 0.875671 27.481 5.85967 27.481 12.0953C27.481 18.3309 21.5184 23.3135 14.2398 23.3135C13.4213 23.3135 12.6149 23.2514 11.8206 23.1273C11.4776 23.2071 10.107 24.0107 8.1316 25.4345C7.4176 25.9511 6.4012 25.4527 6.4012 24.5833V21.1393C5.88942 20.8228 5.40097 20.47 4.9396 20.0837M11.8696 21.0049C11.9284 21.0049 11.9891 21.0095 12.0516 21.0189C12.7748 21.1388 13.5067 21.1987 14.2398 21.1981C20.3886 21.1981 25.3096 17.0835 25.3096 12.0953C25.3096 7.10707 20.3886 2.99387 14.2398 2.99387C8.0938 2.99387 3.17 7.10847 3.17 12.0953C3.17 14.5075 4.3194 16.7783 6.3522 18.4779C6.86553 18.9053 7.42367 19.2885 8.0266 19.6273C8.364 19.8163 8.5726 20.1663 8.5726 20.5443V22.5309C10.135 21.4949 11.1626 21.0049 11.8682 21.0049"/>
</mask>
<path d="M15.392 24.1213C16.3776 24.0513 17.3501 23.894 18.3096 23.6495C19.4903 24.0033 20.736 24.0838 21.9524 23.8847C22.0007 23.8784 22.0493 23.8747 22.098 23.8735C22.532 23.8735 23.1018 24.1227 23.932 24.6477V23.7853C23.9322 23.635 23.9727 23.4876 24.0493 23.3583C24.1259 23.229 24.2357 23.1226 24.3674 23.0503C24.7286 22.8501 25.0646 22.6163 25.3712 22.3615C26.5808 21.3493 27.264 20.0011 27.264 18.5731C27.2635 18.1008 27.1884 17.6316 27.0414 17.1829C27.4054 16.5109 27.7022 15.8025 27.9192 15.0689C28.6192 16.1049 28.9972 17.3229 29 18.5731C29 20.5135 28.0844 22.3251 26.501 23.6481C26.2361 23.8684 25.9579 24.0723 25.668 24.2585V26.2773C25.668 26.9717 24.856 27.3693 24.2834 26.9577C23.7417 26.5576 23.181 26.1839 22.6034 25.8377C22.4373 25.7401 22.2647 25.654 22.0868 25.5801C21.6108 25.651 21.1264 25.6869 20.6336 25.6879C18.6568 25.6879 16.8298 25.1027 15.392 24.1213ZM4.9396 20.0809C2.442 17.9949 1 15.1445 1 12.0953C1 5.85967 6.9612 0.875671 14.2398 0.875671C21.5184 0.875671 27.481 5.85967 27.481 12.0953C27.481 18.3309 21.5184 23.3135 14.2398 23.3135C13.4213 23.3135 12.6149 23.2514 11.8206 23.1273C11.4776 23.2071 10.107 24.0107 8.1316 25.4345C7.4176 25.9511 6.4012 25.4527 6.4012 24.5833V21.1393C5.88942 20.8228 5.40097 20.47 4.9396 20.0837M11.8696 21.0049C11.9284 21.0049 11.9891 21.0095 12.0516 21.0189C12.7748 21.1388 13.5067 21.1987 14.2398 21.1981C20.3886 21.1981 25.3096 17.0835 25.3096 12.0953C25.3096 7.10707 20.3886 2.99387 14.2398 2.99387C8.0938 2.99387 3.17 7.10847 3.17 12.0953C3.17 14.5075 4.3194 16.7783 6.3522 18.4779C6.86553 18.9053 7.42367 19.2885 8.0266 19.6273C8.364 19.8163 8.5726 20.1663 8.5726 20.5443V22.5309C10.135 21.4949 11.1626 21.0049 11.8682 21.0049" fill="#ACACAC"/>
<path d="M15.392 24.1213L15.3778 23.9218L14.8046 23.9625L15.2792 24.2865L15.392 24.1213ZM18.3096 23.6495L18.367 23.4579L18.3139 23.442L18.2602 23.4557L18.3096 23.6495ZM21.9524 23.8847L21.9267 23.6862L21.9201 23.6873L21.9524 23.8847ZM22.098 23.8735V23.6734L22.0931 23.6735L22.098 23.8735ZM23.932 24.6477L23.8251 24.8167L24.132 25.0108V24.6477H23.932ZM23.932 23.7853L23.732 23.785V23.7853H23.932ZM24.3674 23.0503L24.4637 23.2255L24.4644 23.2252L24.3674 23.0503ZM25.3712 22.3615L25.499 22.5153L25.4996 22.5149L25.3712 22.3615ZM27.264 18.5731L27.464 18.5731L27.464 18.5729L27.264 18.5731ZM27.0414 17.1829L26.8655 17.0876L26.8245 17.1633L26.8513 17.2451L27.0414 17.1829ZM27.9192 15.0689L28.0849 14.9569L27.8476 14.6057L27.7274 15.0121L27.9192 15.0689ZM29 18.5731L29.2 18.5731L29.2 18.5726L29 18.5731ZM26.501 23.6481L26.6289 23.8018L26.6292 23.8015L26.501 23.6481ZM25.668 24.2585L25.5599 24.0902L25.468 24.1492V24.2585H25.668ZM24.2834 26.9577L24.1646 27.1186L24.1667 27.1201L24.2834 26.9577ZM22.6034 25.8377L22.7062 25.6661L22.7047 25.6652L22.6034 25.8377ZM22.0868 25.5801L22.1635 25.3954L22.1123 25.3741L22.0573 25.3823L22.0868 25.5801ZM20.6336 25.6879V25.8879L20.634 25.8879L20.6336 25.6879ZM11.8206 23.1273L11.8515 22.9297L11.8131 22.9237L11.7753 22.9325L11.8206 23.1273ZM8.1316 25.4345L8.01466 25.2722L8.01436 25.2724L8.1316 25.4345ZM6.4012 21.1393H6.6012V21.0278L6.5064 20.9692L6.4012 21.1393ZM12.0516 21.0189L12.0843 20.8215L12.0811 20.8211L12.0516 21.0189ZM14.2398 21.1981L14.2398 20.9981L14.2396 20.9981L14.2398 21.1981ZM6.3522 18.4779L6.22391 18.6313L6.22422 18.6316L6.3522 18.4779ZM8.0266 19.6273L7.92862 19.8016L7.92886 19.8018L8.0266 19.6273ZM8.5726 22.5309H8.3726V22.9035L8.68313 22.6976L8.5726 22.5309ZM15.4062 24.3208C16.4037 24.2499 17.388 24.0907 18.359 23.8433L18.2602 23.4557C17.3123 23.6973 16.3515 23.8526 15.3778 23.9218L15.4062 24.3208ZM18.2522 23.8411C19.4619 24.2036 20.7384 24.286 21.9847 24.082L21.9201 23.6873C20.7337 23.8815 19.5186 23.803 18.367 23.4579L18.2522 23.8411ZM21.9781 24.083C22.0195 24.0776 22.0612 24.0744 22.1029 24.0734L22.0931 23.6735C22.0374 23.6749 21.9819 23.6792 21.9267 23.6863L21.9781 24.083ZM22.098 24.0735C22.4677 24.0735 22.9928 24.2904 23.8251 24.8167L24.0389 24.4786C23.2108 23.955 22.5963 23.6735 22.098 23.6735V24.0735ZM24.132 24.6477V23.7853H23.732V24.6477H24.132ZM24.132 23.7855C24.1322 23.6711 24.163 23.5587 24.2214 23.4602L23.8772 23.2564C23.7824 23.4164 23.7323 23.599 23.732 23.785L24.132 23.7855ZM24.2214 23.4602C24.2797 23.3617 24.3634 23.2807 24.4637 23.2255L24.2711 22.875C24.108 22.9646 23.972 23.0963 23.8772 23.2564L24.2214 23.4602ZM24.4644 23.2252C24.8372 23.0185 25.1835 22.7775 25.499 22.5153L25.2434 22.2077C24.9457 22.455 24.62 22.6816 24.2704 22.8753L24.4644 23.2252ZM25.4996 22.5149C26.7481 21.4701 27.464 20.0682 27.464 18.5731H27.064C27.064 19.9339 26.4135 21.2285 25.2428 22.2081L25.4996 22.5149ZM27.464 18.5729C27.4635 18.0796 27.385 17.5894 27.2315 17.1206L26.8513 17.2451C26.9918 17.6739 27.0636 18.1221 27.064 18.5733L27.464 18.5729ZM27.2173 17.2781C27.5876 16.5944 27.8899 15.8732 28.111 15.1256L27.7274 15.0121C27.5145 15.7318 27.2232 16.4273 26.8655 17.0876L27.2173 17.2781ZM27.7535 15.1808C28.4314 16.1842 28.7973 17.3635 28.8 18.5735L29.2 18.5726C29.1971 17.2823 28.807 16.0255 28.0849 14.9569L27.7535 15.1808ZM28.8 18.5731C28.8 20.4476 27.916 22.2052 26.3728 23.4946L26.6292 23.8015C28.2528 22.445 29.2 20.5793 29.2 18.5731H28.8ZM26.3731 23.4943C26.1145 23.7094 25.8429 23.9084 25.5599 24.0902L25.7761 24.4268C26.0729 24.2361 26.3577 24.0274 26.6289 23.8018L26.3731 23.4943ZM25.468 24.2585V26.2773H25.868V24.2585H25.468ZM25.468 26.2773C25.468 26.7985 24.8488 27.1178 24.4001 26.7953L24.1667 27.1201C24.8632 27.6208 25.868 27.1448 25.868 26.2773H25.468ZM24.4022 26.7968C23.8553 26.3929 23.2893 26.0156 22.7062 25.6661L22.5006 26.0092C23.0727 26.3521 23.628 26.7223 24.1646 27.1186L24.4022 26.7968ZM22.7047 25.6652C22.5307 25.563 22.3499 25.4728 22.1635 25.3954L22.0101 25.7648C22.1795 25.8352 22.3439 25.9171 22.5021 26.0101L22.7047 25.6652ZM22.0573 25.3823C21.5912 25.4517 21.1165 25.487 20.6332 25.4879L20.634 25.8879C21.1363 25.8869 21.6304 25.8503 22.1163 25.7779L22.0573 25.3823ZM20.6336 25.4879C18.6959 25.4879 16.9084 24.9142 15.5048 23.9561L15.2792 24.2865C16.7512 25.2912 18.6177 25.8879 20.6336 25.8879V25.4879ZM5.06781 19.9274C2.61027 17.8748 1.2 15.0785 1.2 12.0953H0.8C0.8 15.2105 2.27373 18.1149 4.81139 20.2344L5.06781 19.9274ZM1.2 12.0953C1.2 6.0006 7.0385 1.07567 14.2398 1.07567V0.675671C6.8839 0.675671 0.8 5.71874 0.8 12.0953H1.2ZM14.2398 1.07567C21.4411 1.07567 27.281 6.00062 27.281 12.0953H27.681C27.681 5.71872 21.5957 0.675671 14.2398 0.675671V1.07567ZM27.281 12.0953C27.281 18.1899 21.4412 23.1135 14.2398 23.1135V23.5135C21.5956 23.5135 27.681 18.4719 27.681 12.0953H27.281ZM14.2398 23.1135C13.4314 23.1135 12.6353 23.0522 11.8515 22.9297L11.7897 23.3249C12.5944 23.4506 13.4111 23.5135 14.2398 23.5135V23.1135ZM11.7753 22.9325C11.6615 22.9589 11.4908 23.0359 11.2844 23.1441C11.0715 23.2557 10.8021 23.4106 10.4835 23.6065C9.84601 23.9984 9.00538 24.5581 8.01466 25.2722L8.24854 25.5967C9.23322 24.887 10.0656 24.333 10.693 23.9472C11.0069 23.7543 11.2679 23.6043 11.4701 23.4984C11.679 23.3889 11.8082 23.3355 11.8659 23.3221L11.7753 22.9325ZM8.01436 25.2724C7.4252 25.6987 6.6012 25.2804 6.6012 24.5833H6.2012C6.2012 25.625 7.41 26.2034 8.24884 25.5965L8.01436 25.2724ZM6.6012 24.5833V21.1393H6.2012V24.5833H6.6012ZM6.5064 20.9692C6.00274 20.6577 5.52204 20.3105 5.068 19.9303L4.8112 20.237C5.27989 20.6295 5.7761 20.9878 6.296 21.3094L6.5064 20.9692ZM11.8696 21.2049C11.9178 21.2049 11.9686 21.2087 12.0221 21.2167L12.0811 20.8211C12.0095 20.8104 11.939 20.8049 11.8696 20.8049V21.2049ZM12.0189 21.2162C12.753 21.3379 13.4959 21.3988 14.24 21.3981L14.2396 20.9981C13.5175 20.9987 12.7967 20.9397 12.0843 20.8216L12.0189 21.2162ZM14.2398 21.3981C20.4617 21.3981 25.5096 17.2279 25.5096 12.0953H25.1096C25.1096 16.9391 20.3155 20.9981 14.2398 20.9981V21.3981ZM25.5096 12.0953C25.5096 6.96262 20.4617 2.79387 14.2398 2.79387V3.19387C20.3155 3.19387 25.1096 7.25152 25.1096 12.0953H25.5096ZM14.2398 2.79387C8.02074 2.79387 2.97 6.96401 2.97 12.0953H3.37C3.37 7.25294 8.16686 3.19387 14.2398 3.19387V2.79387ZM2.97 12.0953C2.97 14.5744 4.15191 16.8989 6.22391 18.6313L6.48049 18.3244C4.48689 16.6576 3.37 14.4405 3.37 12.0953H2.97ZM6.22422 18.6316C6.74723 19.0671 7.31545 19.4571 7.92862 19.8016L8.12458 19.4529C7.53188 19.1199 6.98384 18.7436 6.48018 18.3242L6.22422 18.6316ZM7.92886 19.8018C8.20503 19.9565 8.3726 20.2408 8.3726 20.5443H8.7726C8.7726 20.0917 8.52297 19.6761 8.12434 19.4528L7.92886 19.8018ZM8.3726 20.5443V22.5309H8.7726V20.5443H8.3726ZM8.68313 22.6976C9.46082 22.1819 10.0989 21.8066 10.6262 21.5606C11.1561 21.3135 11.5582 21.2049 11.8682 21.2049V20.8049C11.4726 20.8049 11.0081 20.9412 10.4572 21.1981C9.90373 21.4562 9.24678 21.8439 8.46207 22.3642L8.68313 22.6976Z" fill="#ACACAC" mask="url(#path-1-outside-1_33_154)"/>
<path d="M8.875 13.9993C9.33913 13.9993 9.78425 13.8149 10.1124 13.4867C10.4406 13.1585 10.625 12.7134 10.625 12.2493C10.625 11.7851 10.4406 11.34 10.1124 11.0118C9.78425 10.6836 9.33913 10.4993 8.875 10.4993C8.41087 10.4993 7.96575 10.6836 7.63756 11.0118C7.30937 11.34 7.125 11.7851 7.125 12.2493C7.125 12.7134 7.30937 13.1585 7.63756 13.4867C7.96575 13.8149 8.41087 13.9993 8.875 13.9993ZM14.5618 13.9993C15.0259 13.9993 15.471 13.8149 15.7992 13.4867C16.1274 13.1585 16.3118 12.7134 16.3118 12.2493C16.3118 11.7851 16.1274 11.34 15.7992 11.0118C15.471 10.6836 15.0259 10.4993 14.5618 10.4993C14.0977 10.4993 13.6526 10.6836 13.3244 11.0118C12.9962 11.34 12.8118 11.7851 12.8118 12.2493C12.8118 12.7134 12.9962 13.1585 13.3244 13.4867C13.6526 13.8149 14.0977 13.9993 14.5618 13.9993ZM20.25 14.0007C20.7141 14.0007 21.1592 13.8163 21.4874 13.4881C21.8156 13.1599 22 12.7148 22 12.2507C22 11.7865 21.8156 11.3414 21.4874 11.0132C21.1592 10.685 20.7141 10.5007 20.25 10.5007C19.7859 10.5007 19.3408 10.685 19.0126 11.0132C18.6844 11.3414 18.5 11.7865 18.5 12.2507C18.5 12.7148 18.6844 13.1599 19.0126 13.4881C19.3408 13.8163 19.7859 14.0007 20.25 14.0007Z" fill="#ACACAC"/>
</svg>
