<svg width="27" height="24" viewBox="0 0 27 24" fill="none" xmlns="http://www.w3.org/2000/svg">
<path d="M2 19.6875C2 18.1625 2.6058 16.7 3.68414 15.6216C4.76247 14.5433 6.22501 13.9375 7.75 13.9375H19.25C20.775 13.9375 22.2375 14.5433 23.3159 15.6216C24.3942 16.7 25 18.1625 25 19.6875C25 20.45 24.6971 21.1813 24.1579 21.7204C23.6188 22.2596 22.8875 22.5625 22.125 22.5625H4.875C4.1125 22.5625 3.38123 22.2596 2.84207 21.7204C2.3029 21.1813 2 20.45 2 19.6875Z" stroke="#ACACAC" stroke-width="2.5" stroke-linejoin="round"/>
<path d="M13.5 10.0625C15.8817 10.0625 17.8125 8.13173 17.8125 5.75C17.8125 3.36827 15.8817 1.4375 13.5 1.4375C11.1183 1.4375 9.1875 3.36827 9.1875 5.75C9.1875 8.13173 11.1183 10.0625 13.5 10.0625Z" stroke="#ACACAC" stroke-width="2.5"/>
</svg>
