<svg width="27" height="25" viewBox="0 0 27 25" fill="none" xmlns="http://www.w3.org/2000/svg">
<path d="M2 20.25C2 18.725 2.6058 17.2625 3.68414 16.1841C4.76247 15.1058 6.22501 14.5 7.75 14.5H19.25C20.775 14.5 22.2375 15.1058 23.3159 16.1841C24.3942 17.2625 25 18.725 25 20.25C25 21.0125 24.6971 21.7438 24.1579 22.2829C23.6188 22.8221 22.8875 23.125 22.125 23.125H4.875C4.1125 23.125 3.38123 22.8221 2.84207 22.2829C2.3029 21.7438 2 21.0125 2 20.25Z" fill="#FFDED2" stroke="#FF7F50" stroke-width="2.5" stroke-linejoin="round"/>
<path d="M13.5 10.625C15.8817 10.625 17.8125 8.69423 17.8125 6.3125C17.8125 3.93077 15.8817 2 13.5 2C11.1183 2 9.1875 3.93077 9.1875 6.3125C9.1875 8.69423 11.1183 10.625 13.5 10.625Z" fill="#FFDED2" stroke="#FF7F50" stroke-width="2.5"/>
</svg>
