<svg width="25" height="25" viewBox="0 0 25 25" fill="none" xmlns="http://www.w3.org/2000/svg">
<rect x="7" y="8" width="14" height="13" fill="#FFDED2"/>
<path d="M20.8333 6.25C21.3858 6.25 21.9158 6.46949 22.3065 6.86019C22.6972 7.25089 22.9166 7.7808 22.9166 8.33333V20.1385C22.9166 20.6911 22.6972 21.221 22.3065 21.6117C21.9158 22.0024 21.3858 22.2219 20.8333 22.2219H7.29165C6.73911 22.2219 6.20921 22.0024 5.81851 21.6117C5.42781 21.221 5.20831 20.6911 5.20831 20.1385V8.33333C5.20831 7.7808 5.42781 7.25089 5.81851 6.86019C6.20921 6.46949 6.73911 6.25 7.29165 6.25H20.8333ZM12.2208 14.525L7.43331 19.3125L7.36456 19.375L7.29165 19.4312V20.1396H20.8333V19.4312L20.7604 19.376L20.6916 19.3135L18.3583 16.9802L17.9906 17.349L18.0479 17.4062C18.2347 17.5937 18.3432 17.8452 18.3513 18.1098C18.3593 18.3743 18.2664 18.632 18.0914 18.8305C17.9164 19.029 17.6723 19.1534 17.4089 19.1785C17.1454 19.2036 16.8823 19.1275 16.6729 18.9656L16.575 18.8792L12.2208 14.525ZM17.7083 3.125C18.2339 3.12483 18.7402 3.32334 19.1255 3.68073C19.5109 4.03811 19.747 4.52796 19.7864 5.05208L19.7916 5.20833H5.20831C4.95317 5.20837 4.70692 5.30204 4.51626 5.47158C4.3256 5.64112 4.20379 5.87474 4.17394 6.12812L4.16665 6.25V18.75C3.64105 18.7502 3.13481 18.5517 2.74941 18.1943C2.36401 17.8369 2.12794 17.347 2.08852 16.8229L2.08331 16.6667V6.25C2.08327 5.45291 2.38782 4.68592 2.93465 4.10598C3.48148 3.52603 4.22926 3.17697 5.02498 3.13021L5.20831 3.125H17.7083ZM20.8333 8.33333H7.29165V16.5083L11.3 12.5C11.4209 12.3791 11.5644 12.2831 11.7224 12.2177C11.8804 12.1522 12.0498 12.1185 12.2208 12.1185C12.3918 12.1185 12.5612 12.1522 12.7192 12.2177C12.8772 12.2831 13.0207 12.3791 13.1416 12.5L16.5177 15.875L17.4385 14.9552C17.5594 14.8343 17.703 14.7383 17.861 14.6729C18.019 14.6074 18.1883 14.5737 18.3594 14.5737C18.5304 14.5737 18.6997 14.6074 18.8577 14.6729C19.0157 14.7383 19.1593 14.8343 19.2802 14.9552L20.8333 16.5083V8.33333ZM17.1875 9.89583C17.3927 9.89583 17.5959 9.93625 17.7854 10.0148C17.975 10.0933 18.1472 10.2084 18.2923 10.3535C18.4374 10.4986 18.5525 10.6708 18.631 10.8604C18.7096 11.05 18.75 11.2531 18.75 11.4583C18.75 11.6635 18.7096 11.8667 18.631 12.0563C18.5525 12.2458 18.4374 12.4181 18.2923 12.5632C18.1472 12.7083 17.975 12.8234 17.7854 12.9019C17.5959 12.9804 17.3927 13.0208 17.1875 13.0208C16.7731 13.0208 16.3757 12.8562 16.0826 12.5632C15.7896 12.2702 15.625 11.8727 15.625 11.4583C15.625 11.0439 15.7896 10.6465 16.0826 10.3535C16.3757 10.0605 16.7731 9.89583 17.1875 9.89583Z" fill="#FF7F50"/>
</svg>
