<svg width="30" height="30" viewBox="0 0 30 30" fill="none" xmlns="http://www.w3.org/2000/svg">
<rect x="8.40002" y="9.6" width="16.8" height="15.6" fill="#FFDED2"/>
<path d="M25 7.5C25.663 7.5 26.2989 7.76339 26.7678 8.23223C27.2366 8.70107 27.5 9.33696 27.5 10V24.1662C27.5 24.8293 27.2366 25.4652 26.7678 25.934C26.2989 26.4029 25.663 26.6662 25 26.6662H8.75C8.08696 26.6662 7.45107 26.4029 6.98223 25.934C6.51339 25.4652 6.25 24.8293 6.25 24.1662V10C6.25 9.33696 6.51339 8.70107 6.98223 8.23223C7.45107 7.76339 8.08696 7.5 8.75 7.5H25ZM14.665 17.43L8.92 23.175L8.8375 23.25L8.75 23.3175V24.1675H25V23.3175L24.9125 23.2512L24.83 23.1762L22.03 20.3762L21.5887 20.8187L21.6575 20.8875C21.8817 21.1124 22.0118 21.4143 22.0215 21.7317C22.0312 22.0492 21.9197 22.3584 21.7097 22.5966C21.4996 22.8348 21.2068 22.9841 20.8907 23.0142C20.5745 23.0444 20.2587 22.953 20.0075 22.7587L19.89 22.655L14.665 17.43ZM21.25 3.75C21.8807 3.7498 22.4882 3.98801 22.9507 4.41687C23.4132 4.84573 23.6964 5.43356 23.7437 6.0625L23.75 6.25H6.25C5.94383 6.25004 5.64833 6.36244 5.41953 6.56589C5.19074 6.76934 5.04457 7.04969 5.00875 7.35375L5 7.5V22.5C4.36928 22.5002 3.76179 22.262 3.29931 21.8331C2.83684 21.4043 2.55355 20.8164 2.50625 20.1875L2.5 20V7.5C2.49995 6.54349 2.86541 5.62311 3.5216 4.92717C4.1778 4.23124 5.07513 3.81237 6.03 3.75625L6.25 3.75H21.25ZM25 10H8.75V19.81L13.56 15C13.7051 14.8549 13.8774 14.7397 14.067 14.6612C14.2566 14.5826 14.4598 14.5422 14.665 14.5422C14.8702 14.5422 15.0734 14.5826 15.263 14.6612C15.4526 14.7397 15.6249 14.8549 15.77 15L19.8212 19.05L20.9262 17.9462C21.0713 17.8011 21.2436 17.686 21.4332 17.6074C21.6228 17.5289 21.826 17.4885 22.0312 17.4885C22.2365 17.4885 22.4397 17.5289 22.6293 17.6074C22.8189 17.686 22.9912 17.8011 23.1362 17.9462L25 19.81V10ZM20.625 11.875C20.8712 11.875 21.115 11.9235 21.3425 12.0177C21.57 12.112 21.7767 12.2501 21.9508 12.4242C22.1249 12.5983 22.263 12.805 22.3573 13.0325C22.4515 13.26 22.5 13.5038 22.5 13.75C22.5 13.9962 22.4515 14.24 22.3573 14.4675C22.263 14.695 22.1249 14.9017 21.9508 15.0758C21.7767 15.2499 21.57 15.388 21.3425 15.4823C21.115 15.5765 20.8712 15.625 20.625 15.625C20.1277 15.625 19.6508 15.4275 19.2992 15.0758C18.9475 14.7242 18.75 14.2473 18.75 13.75C18.75 13.2527 18.9475 12.7758 19.2992 12.4242C19.6508 12.0725 20.1277 11.875 20.625 11.875Z" fill="#FF7F50"/>
</svg>
