<svg width="25" height="26" viewBox="0 0 25 26" fill="none" xmlns="http://www.w3.org/2000/svg">
<rect x="1.25" y="4.25" width="22.5" height="21.25" fill="#F7E2DB"/>
<path d="M22.9167 2.42308H19.7917V1.46154C19.7917 1.20652 19.6819 0.961952 19.4866 0.781628C19.2912 0.601305 19.0263 0.5 18.75 0.5C18.4737 0.5 18.2088 0.601305 18.0134 0.781628C17.8181 0.961952 17.7083 1.20652 17.7083 1.46154V2.42308H7.29167V1.46154C7.29167 1.20652 7.18192 0.961952 6.98657 0.781628C6.79122 0.601305 6.52627 0.5 6.25 0.5C5.97373 0.5 5.70878 0.601305 5.51343 0.781628C5.31808 0.961952 5.20833 1.20652 5.20833 1.46154V2.42308H2.08333C1.5308 2.42308 1.00089 2.62569 0.610194 2.98633C0.219493 3.34698 0 3.83612 0 4.34615V23.5769C0 24.087 0.219493 24.5761 0.610194 24.9367C1.00089 25.2974 1.5308 25.5 2.08333 25.5H22.9167C23.4692 25.5 23.9991 25.2974 24.3898 24.9367C24.7805 24.5761 25 24.087 25 23.5769V4.34615C25 3.83612 24.7805 3.34698 24.3898 2.98633C23.9991 2.62569 23.4692 2.42308 22.9167 2.42308ZM5.20833 4.34615V5.30769C5.20833 5.56271 5.31808 5.80728 5.51343 5.9876C5.70878 6.16793 5.97373 6.26923 6.25 6.26923C6.52627 6.26923 6.79122 6.16793 6.98657 5.9876C7.18192 5.80728 7.29167 5.56271 7.29167 5.30769V4.34615H17.7083V5.30769C17.7083 5.56271 17.8181 5.80728 18.0134 5.9876C18.2088 6.16793 18.4737 6.26923 18.75 6.26923C19.0263 6.26923 19.2912 6.16793 19.4866 5.9876C19.6819 5.80728 19.7917 5.56271 19.7917 5.30769V4.34615H22.9167V8.19231H2.08333V4.34615H5.20833ZM22.9167 23.5769H2.08333V10.1154H22.9167V23.5769ZM10.4167 13V20.6923C10.4167 20.9473 10.3069 21.1919 10.1116 21.3722C9.91622 21.5525 9.65127 21.6538 9.375 21.6538C9.09873 21.6538 8.83378 21.5525 8.63843 21.3722C8.44308 21.1919 8.33333 20.9473 8.33333 20.6923V14.5553L7.75781 14.8221C7.51055 14.9362 7.22431 14.955 6.96205 14.8743C6.69979 14.7936 6.483 14.6201 6.35937 14.3918C6.23574 14.1636 6.2154 13.8994 6.30282 13.6573C6.39024 13.4152 6.57826 13.2151 6.82552 13.101L8.90885 12.1394C9.06772 12.066 9.24429 12.0314 9.42176 12.0387C9.59923 12.0461 9.77171 12.0952 9.92281 12.1815C10.0739 12.2677 10.1986 12.3882 10.285 12.5315C10.3715 12.6747 10.4168 12.836 10.4167 13ZM18.1198 16.6599L15.625 19.7308H17.7083C17.9846 19.7308 18.2496 19.8321 18.4449 20.0124C18.6403 20.1927 18.75 20.4373 18.75 20.6923C18.75 20.9473 18.6403 21.1919 18.4449 21.3722C18.2496 21.5525 17.9846 21.6538 17.7083 21.6538H13.5417C13.3482 21.6538 13.1586 21.6041 12.994 21.5102C12.8295 21.4164 12.6965 21.282 12.61 21.1223C12.5235 20.9626 12.4868 20.7838 12.5042 20.606C12.5216 20.4281 12.5923 20.2582 12.7083 20.1154L16.4557 15.5036C16.541 15.3989 16.6021 15.2791 16.6354 15.1518C16.6687 15.0244 16.6735 14.8922 16.6494 14.7631C16.6254 14.6339 16.573 14.5107 16.4955 14.401C16.418 14.2913 16.317 14.1973 16.1987 14.1249C16.0804 14.0524 15.9474 14.0031 15.8077 13.9798C15.6681 13.9566 15.5247 13.9599 15.3865 13.9897C15.2483 14.0194 15.1181 14.0749 15.0039 14.1527C14.8898 14.2305 14.7941 14.3291 14.7227 14.4423C14.6563 14.5551 14.5661 14.6546 14.4574 14.7347C14.3487 14.8149 14.2238 14.8741 14.0899 14.9089C13.956 14.9438 13.8159 14.9535 13.6779 14.9376C13.5398 14.9216 13.4067 14.8803 13.2862 14.8161C13.1658 14.7519 13.0605 14.666 12.9766 14.5636C12.8926 14.4612 12.8318 14.3444 12.7976 14.2199C12.7634 14.0954 12.7565 13.9659 12.7774 13.839C12.7983 13.712 12.8465 13.5902 12.9193 13.4808C13.2634 12.9311 13.7943 12.5016 14.4297 12.2588C15.0651 12.016 15.7696 11.9734 16.4339 12.1377C17.0982 12.3021 17.6852 12.6641 18.1039 13.1676C18.5227 13.6712 18.7498 14.2883 18.75 14.9231C18.7522 15.5502 18.5307 16.1605 18.1198 16.6599Z" fill="#FF7F50"/>
</svg>
