<svg width="25" height="25" viewBox="0 0 25 25" fill="none" xmlns="http://www.w3.org/2000/svg">
<path d="M22.9167 1.92308H19.7917V0.961538C19.7917 0.706523 19.6819 0.461952 19.4866 0.281628C19.2912 0.101305 19.0263 0 18.75 0C18.4737 0 18.2088 0.101305 18.0134 0.281628C17.8181 0.461952 17.7083 0.706523 17.7083 0.961538V1.92308H7.29167V0.961538C7.29167 0.706523 7.18192 0.461952 6.98657 0.281628C6.79122 0.101305 6.52627 0 6.25 0C5.97373 0 5.70878 0.101305 5.51343 0.281628C5.31808 0.461952 5.20833 0.706523 5.20833 0.961538V1.92308H2.08333C1.5308 1.92308 1.00089 2.12569 0.610194 2.48633C0.219493 2.84698 0 3.33612 0 3.84615V23.0769C0 23.587 0.219493 24.0761 0.610194 24.4367C1.00089 24.7974 1.5308 25 2.08333 25H22.9167C23.4692 25 23.9991 24.7974 24.3898 24.4367C24.7805 24.0761 25 23.587 25 23.0769V3.84615C25 3.33612 24.7805 2.84698 24.3898 2.48633C23.9991 2.12569 23.4692 1.92308 22.9167 1.92308ZM5.20833 3.84615V4.80769C5.20833 5.06271 5.31808 5.30728 5.51343 5.4876C5.70878 5.66793 5.97373 5.76923 6.25 5.76923C6.52627 5.76923 6.79122 5.66793 6.98657 5.4876C7.18192 5.30728 7.29167 5.06271 7.29167 4.80769V3.84615H17.7083V4.80769C17.7083 5.06271 17.8181 5.30728 18.0134 5.4876C18.2088 5.66793 18.4737 5.76923 18.75 5.76923C19.0263 5.76923 19.2912 5.66793 19.4866 5.4876C19.6819 5.30728 19.7917 5.06271 19.7917 4.80769V3.84615H22.9167V7.69231H2.08333V3.84615H5.20833ZM22.9167 23.0769H2.08333V9.61539H22.9167V23.0769ZM10.4167 12.5V20.1923C10.4167 20.4473 10.3069 20.6919 10.1116 20.8722C9.91622 21.0525 9.65127 21.1538 9.375 21.1538C9.09873 21.1538 8.83378 21.0525 8.63843 20.8722C8.44308 20.6919 8.33333 20.4473 8.33333 20.1923V14.0553L7.75781 14.3221C7.51055 14.4362 7.22431 14.455 6.96205 14.3743C6.69979 14.2936 6.483 14.1201 6.35937 13.8918C6.23574 13.6636 6.2154 13.3994 6.30282 13.1573C6.39024 12.9152 6.57826 12.7151 6.82552 12.601L8.90885 11.6394C9.06772 11.566 9.24429 11.5314 9.42176 11.5387C9.59923 11.5461 9.77171 11.5952 9.92281 11.6815C10.0739 11.7677 10.1986 11.8882 10.285 12.0315C10.3715 12.1747 10.4168 12.336 10.4167 12.5ZM18.1198 16.1599L15.625 19.2308H17.7083C17.9846 19.2308 18.2496 19.3321 18.4449 19.5124C18.6403 19.6927 18.75 19.9373 18.75 20.1923C18.75 20.4473 18.6403 20.6919 18.4449 20.8722C18.2496 21.0525 17.9846 21.1538 17.7083 21.1538H13.5417C13.3482 21.1538 13.1586 21.1041 12.994 21.0102C12.8295 20.9164 12.6965 20.782 12.61 20.6223C12.5235 20.4626 12.4868 20.2838 12.5042 20.106C12.5216 19.9281 12.5923 19.7582 12.7083 19.6154L16.4557 15.0036C16.541 14.8989 16.6021 14.7791 16.6354 14.6518C16.6687 14.5244 16.6735 14.3922 16.6494 14.2631C16.6254 14.1339 16.573 14.0107 16.4955 13.901C16.418 13.7913 16.317 13.6973 16.1987 13.6249C16.0804 13.5524 15.9474 13.5031 15.8077 13.4798C15.6681 13.4566 15.5247 13.4599 15.3865 13.4897C15.2483 13.5194 15.1181 13.5749 15.0039 13.6527C14.8898 13.7305 14.7941 13.8291 14.7227 13.9423C14.6563 14.0551 14.5661 14.1546 14.4574 14.2347C14.3487 14.3149 14.2238 14.3741 14.0899 14.4089C13.956 14.4438 13.8159 14.4535 13.6779 14.4376C13.5398 14.4216 13.4067 14.3803 13.2862 14.3161C13.1658 14.2519 13.0605 14.166 12.9766 14.0636C12.8926 13.9612 12.8318 13.8444 12.7976 13.7199C12.7634 13.5954 12.7565 13.4659 12.7774 13.339C12.7983 13.212 12.8465 13.0902 12.9193 12.9808C13.2634 12.4311 13.7943 12.0016 14.4297 11.7588C15.0651 11.516 15.7696 11.4734 16.4339 11.6377C17.0982 11.8021 17.6852 12.1641 18.1039 12.6676C18.5227 13.1712 18.7498 13.7883 18.75 14.4231C18.7522 15.0502 18.5307 15.6605 18.1198 16.1599Z" fill="#ACACAC"/>
</svg>
