<svg width="20" height="22" viewBox="0 0 20 22" fill="none" xmlns="http://www.w3.org/2000/svg">
<path d="M18.3333 1.66667H15.8333V0.833333C15.8333 0.61232 15.7455 0.400358 15.5893 0.244078C15.433 0.0877973 15.221 0 15 0C14.779 0 14.567 0.0877973 14.4107 0.244078C14.2545 0.400358 14.1667 0.61232 14.1667 0.833333V1.66667H5.83333V0.833333C5.83333 0.61232 5.74554 0.400358 5.58926 0.244078C5.43297 0.0877973 5.22101 0 5 0C4.77899 0 4.56702 0.0877973 4.41074 0.244078C4.25446 0.400358 4.16667 0.61232 4.16667 0.833333V1.66667H1.66667C1.22464 1.66667 0.800716 1.84226 0.488155 2.15482C0.175595 2.46738 0 2.89131 0 3.33333V20C0 20.442 0.175595 20.866 0.488155 21.1785C0.800716 21.4911 1.22464 21.6667 1.66667 21.6667H18.3333C18.7754 21.6667 19.1993 21.4911 19.5118 21.1785C19.8244 20.866 20 20.442 20 20V3.33333C20 2.89131 19.8244 2.46738 19.5118 2.15482C19.1993 1.84226 18.7754 1.66667 18.3333 1.66667ZM4.16667 3.33333V4.16667C4.16667 4.38768 4.25446 4.59964 4.41074 4.75592C4.56702 4.9122 4.77899 5 5 5C5.22101 5 5.43297 4.9122 5.58926 4.75592C5.74554 4.59964 5.83333 4.38768 5.83333 4.16667V3.33333H14.1667V4.16667C14.1667 4.38768 14.2545 4.59964 14.4107 4.75592C14.567 4.9122 14.779 5 15 5C15.221 5 15.433 4.9122 15.5893 4.75592C15.7455 4.59964 15.8333 4.38768 15.8333 4.16667V3.33333H18.3333V6.66667H1.66667V3.33333H4.16667ZM18.3333 20H1.66667V8.33333H18.3333V20ZM8.33333 10.8333V17.5C8.33333 17.721 8.24554 17.933 8.08926 18.0893C7.93297 18.2455 7.72101 18.3333 7.5 18.3333C7.27899 18.3333 7.06702 18.2455 6.91074 18.0893C6.75446 17.933 6.66667 17.721 6.66667 17.5V12.1813L6.20625 12.4125C6.00844 12.5114 5.77945 12.5277 5.56964 12.4577C5.35984 12.3878 5.1864 12.2374 5.0875 12.0396C4.9886 11.8418 4.97232 11.6128 5.04226 11.403C5.11219 11.1932 5.26261 11.0197 5.46042 10.9208L7.12708 10.0875C7.25418 10.0239 7.39543 9.99386 7.53741 10.0002C7.67938 10.0066 7.81737 10.0492 7.93825 10.1239C8.05913 10.1987 8.15889 10.3031 8.22804 10.4273C8.29719 10.5514 8.33344 10.6912 8.33333 10.8333ZM14.4958 14.0052L12.5 16.6667H14.1667C14.3877 16.6667 14.5996 16.7545 14.7559 16.9107C14.9122 17.067 15 17.279 15 17.5C15 17.721 14.9122 17.933 14.7559 18.0893C14.5996 18.2455 14.3877 18.3333 14.1667 18.3333H10.8333C10.6786 18.3333 10.5269 18.2902 10.3952 18.2089C10.2636 18.1275 10.1572 18.0111 10.088 17.8727C10.0188 17.7343 9.98947 17.5793 10.0034 17.4252C10.0173 17.271 10.0738 17.1238 10.1667 17L13.1646 13.0031C13.2328 12.9123 13.2817 12.8086 13.3083 12.6982C13.335 12.5879 13.3388 12.4732 13.3196 12.3613C13.3003 12.2494 13.2584 12.1426 13.1964 12.0475C13.1344 11.9524 13.0536 11.871 12.959 11.8082C12.8644 11.7454 12.7579 11.7027 12.6462 11.6825C12.5344 11.6624 12.4198 11.6653 12.3092 11.691C12.1986 11.7168 12.0945 11.7649 12.0032 11.8323C11.9118 11.8998 11.8353 11.9852 11.7781 12.0833C11.725 12.1811 11.6529 12.2673 11.5659 12.3368C11.479 12.4062 11.379 12.4575 11.2719 12.4877C11.1648 12.5179 11.0527 12.5264 10.9423 12.5125C10.8319 12.4987 10.7253 12.4629 10.629 12.4073C10.5326 12.3516 10.4484 12.2772 10.3812 12.1885C10.3141 12.0997 10.2654 11.9984 10.238 11.8906C10.2107 11.7827 10.2052 11.6705 10.2219 11.5604C10.2386 11.4504 10.2772 11.3449 10.3354 11.25C10.6107 10.7736 11.0354 10.4014 11.5438 10.1909C12.0521 9.9805 12.6157 9.94362 13.1471 10.086C13.6785 10.2284 14.1482 10.5422 14.4831 10.9786C14.8181 11.4151 14.9998 11.9498 15 12.5C15.0018 13.0435 14.8246 13.5724 14.4958 14.0052Z" fill="#ACACAC"/>
</svg>
