<svg width="30" height="28" viewBox="0 0 30 28" fill="none" xmlns="http://www.w3.org/2000/svg">
<path d="M14.3577 22.8189L14.1702 22.8858L14.3358 22.9962L16.1619 24.2136L16.1798 24.2255L16.2009 24.2291L19.8531 24.8378L19.8613 24.8391H19.8696H21.0869H21.1284L21.1577 24.8098L21.6956 24.2719L22.2336 24.8098L22.2629 24.8391H22.3043H22.8716L23.451 25.4185L23.4803 25.4478H23.5217H24.1304H24.1718L24.2011 25.4185L24.8098 24.8098L24.8391 24.7806V24.7391V23.5835L26.0012 23.0025L26.031 22.9876L26.046 22.9578L26.6474 21.7549L27.2446 21.1577L27.2561 21.1462L27.2633 21.1317L27.872 19.9143L27.8826 19.8932V19.8696V18.6522V17.4348V16.2174V16.1871L27.8658 16.1619L26.6484 14.3358L26.5652 14.211L26.482 14.3358L22.8482 19.7865L14.3577 22.8189Z" fill="#FFDED2" stroke="#FF7F50" stroke-width="0.2"/>
<path d="M8.20436 22.913V23.0607L8.3415 23.0059L11.3671 21.7957H14.3913H16.2174H17.4348H17.451L17.4664 21.7905L19.2925 21.1818L21.1186 20.5731L21.141 20.5657L21.1577 20.549L22.3751 19.3316L22.3865 19.3201L22.3938 19.3056L22.9952 18.1027L24.2012 16.8968L24.8099 16.2881L24.8265 16.2714L24.834 16.249L25.4427 14.4229L26.0514 12.5968L26.0565 12.5814V12.5652V10.7391V10.7229L26.0514 10.7075L25.4427 8.88142L25.4352 8.85903L25.4186 8.84233L24.2012 7.62494L22.9952 6.41903L22.3938 5.21615L22.3789 5.18633L22.3491 5.17143L21.1462 4.56999L19.9403 3.36407L19.9236 3.34738L19.9012 3.33991L18.0751 2.73122L18.0754 2.73048L18.0631 2.72803L15.0196 2.11933L15.0099 2.11739H15H12.5652H12.5553L12.5456 2.11933L9.50214 2.72803L9.48751 2.73096L9.47436 2.73803L8.34334 3.34673L8.33144 3.35313L8.32167 3.36246L6.41554 5.18251L4.59672 6.39506L4.57462 6.40979L4.56275 6.43354L3.34536 8.86832L3.34218 8.87468L3.33993 8.88142L2.12254 12.5336L2.11333 12.5612L2.12039 12.5895L2.72909 15.0243L2.73329 15.0411L2.7429 15.0555L3.96029 16.8816L3.96578 16.8898L3.97278 16.8968L5.19017 18.1142L5.18974 18.1146L5.19842 18.1216L8.20436 20.5263V22.913Z" fill="#FFDED2" stroke="#FF7F50" stroke-width="0.2"/>
<mask id="path-3-outside-1_3_599" maskUnits="userSpaceOnUse" x="0" y="0" width="30" height="28" fill="black">
<rect fill="white" width="30" height="28"/>
<path d="M15.392 24.2456C16.3776 24.1756 17.3501 24.0183 18.3096 23.7738C19.4903 24.1277 20.736 24.2081 21.9524 24.009C22.0007 24.0027 22.0493 23.999 22.098 23.9978C22.532 23.9978 23.1018 24.247 23.932 24.772V23.9096C23.9322 23.7593 23.9727 23.6119 24.0493 23.4826C24.1259 23.3533 24.2357 23.247 24.3674 23.1746C24.7286 22.9744 25.0646 22.7406 25.3712 22.4858C26.5808 21.4736 27.264 20.1254 27.264 18.6974C27.2635 18.2252 27.1884 17.756 27.0414 17.3072C27.4054 16.6352 27.7022 15.9268 27.9192 15.1932C28.6192 16.2292 28.9972 17.4472 29 18.6974C29 20.6378 28.0844 22.4494 26.501 23.7724C26.2361 23.9928 25.9579 24.1966 25.668 24.3828V26.4016C25.668 27.096 24.856 27.4936 24.2834 27.082C23.7417 26.6819 23.181 26.3082 22.6034 25.962C22.4373 25.8644 22.2647 25.7783 22.0868 25.7044C21.6108 25.7753 21.1264 25.8113 20.6336 25.8122C18.6568 25.8122 16.8298 25.227 15.392 24.2456ZM4.9396 20.2052C2.442 18.1192 1 15.2688 1 12.2196C1 5.984 6.9612 1 14.2398 1C21.5184 1 27.481 5.984 27.481 12.2196C27.481 18.4552 21.5184 23.4378 14.2398 23.4378C13.4213 23.4378 12.6149 23.3757 11.8206 23.2516C11.4776 23.3314 10.107 24.135 8.1316 25.5588C7.4176 26.0754 6.4012 25.577 6.4012 24.7076V21.2636C5.88942 20.9471 5.40097 20.5943 4.9396 20.208M11.8696 21.1292C11.9284 21.1292 11.9891 21.1339 12.0516 21.1432C12.7748 21.2631 13.5067 21.3231 14.2398 21.3224C20.3886 21.3224 25.3096 17.2078 25.3096 12.2196C25.3096 7.2314 20.3886 3.1182 14.2398 3.1182C8.0938 3.1182 3.17 7.2328 3.17 12.2196C3.17 14.6318 4.3194 16.9026 6.3522 18.6022C6.86553 19.0297 7.42367 19.4128 8.0266 19.7516C8.364 19.9406 8.5726 20.2906 8.5726 20.6686V22.6552C10.135 21.6192 11.1626 21.1292 11.8682 21.1292"/>
</mask>
<path d="M15.392 24.2456C16.3776 24.1756 17.3501 24.0183 18.3096 23.7738C19.4903 24.1277 20.736 24.2081 21.9524 24.009C22.0007 24.0027 22.0493 23.999 22.098 23.9978C22.532 23.9978 23.1018 24.247 23.932 24.772V23.9096C23.9322 23.7593 23.9727 23.6119 24.0493 23.4826C24.1259 23.3533 24.2357 23.247 24.3674 23.1746C24.7286 22.9744 25.0646 22.7406 25.3712 22.4858C26.5808 21.4736 27.264 20.1254 27.264 18.6974C27.2635 18.2252 27.1884 17.756 27.0414 17.3072C27.4054 16.6352 27.7022 15.9268 27.9192 15.1932C28.6192 16.2292 28.9972 17.4472 29 18.6974C29 20.6378 28.0844 22.4494 26.501 23.7724C26.2361 23.9928 25.9579 24.1966 25.668 24.3828V26.4016C25.668 27.096 24.856 27.4936 24.2834 27.082C23.7417 26.6819 23.181 26.3082 22.6034 25.962C22.4373 25.8644 22.2647 25.7783 22.0868 25.7044C21.6108 25.7753 21.1264 25.8113 20.6336 25.8122C18.6568 25.8122 16.8298 25.227 15.392 24.2456ZM4.9396 20.2052C2.442 18.1192 1 15.2688 1 12.2196C1 5.984 6.9612 1 14.2398 1C21.5184 1 27.481 5.984 27.481 12.2196C27.481 18.4552 21.5184 23.4378 14.2398 23.4378C13.4213 23.4378 12.6149 23.3757 11.8206 23.2516C11.4776 23.3314 10.107 24.135 8.1316 25.5588C7.4176 26.0754 6.4012 25.577 6.4012 24.7076V21.2636C5.88942 20.9471 5.40097 20.5943 4.9396 20.208M11.8696 21.1292C11.9284 21.1292 11.9891 21.1339 12.0516 21.1432C12.7748 21.2631 13.5067 21.3231 14.2398 21.3224C20.3886 21.3224 25.3096 17.2078 25.3096 12.2196C25.3096 7.2314 20.3886 3.1182 14.2398 3.1182C8.0938 3.1182 3.17 7.2328 3.17 12.2196C3.17 14.6318 4.3194 16.9026 6.3522 18.6022C6.86553 19.0297 7.42367 19.4128 8.0266 19.7516C8.364 19.9406 8.5726 20.2906 8.5726 20.6686V22.6552C10.135 21.6192 11.1626 21.1292 11.8682 21.1292" fill="#FF7F50"/>
<path d="M15.392 24.2456L15.3778 24.0461L14.8046 24.0868L15.2792 24.4108L15.392 24.2456ZM18.3096 23.7738L18.367 23.5822L18.3139 23.5663L18.2602 23.58L18.3096 23.7738ZM21.9524 24.009L21.9267 23.8106L21.9201 23.8116L21.9524 24.009ZM22.098 23.9978L22.098 23.7977L22.0931 23.7979L22.098 23.9978ZM23.932 24.772L23.8251 24.941L24.132 25.1351V24.772H23.932ZM23.932 23.9096L23.732 23.9093V23.9096H23.932ZM24.3674 23.1746L24.4637 23.3499L24.4644 23.3495L24.3674 23.1746ZM25.3712 22.4858L25.499 22.6396L25.4996 22.6392L25.3712 22.4858ZM27.264 18.6974L27.464 18.6974L27.464 18.6972L27.264 18.6974ZM27.0414 17.3072L26.8655 17.2119L26.8245 17.2876L26.8513 17.3695L27.0414 17.3072ZM27.9192 15.1932L28.0849 15.0812L27.8476 14.7301L27.7274 15.1365L27.9192 15.1932ZM29 18.6974L29.2 18.6974L29.2 18.697L29 18.6974ZM26.501 23.7724L26.6289 23.9262L26.6292 23.9259L26.501 23.7724ZM25.668 24.3828L25.5599 24.2145L25.468 24.2736V24.3828H25.668ZM24.2834 27.082L24.1646 27.2429L24.1667 27.2444L24.2834 27.082ZM22.6034 25.962L22.7062 25.7904L22.7047 25.7896L22.6034 25.962ZM22.0868 25.7044L22.1635 25.5197L22.1123 25.4984L22.0573 25.5066L22.0868 25.7044ZM20.6336 25.8122L20.6336 26.0122L20.634 26.0122L20.6336 25.8122ZM11.8206 23.2516L11.8515 23.054L11.8131 23.048L11.7753 23.0568L11.8206 23.2516ZM8.1316 25.5588L8.01466 25.3966L8.01436 25.3968L8.1316 25.5588ZM6.4012 21.2636H6.6012V21.1521L6.5064 21.0935L6.4012 21.2636ZM12.0516 21.1432L12.0843 20.9459L12.0811 20.9454L12.0516 21.1432ZM14.2398 21.3224L14.2398 21.1224L14.2396 21.1224L14.2398 21.3224ZM6.3522 18.6022L6.22391 18.7556L6.22422 18.7559L6.3522 18.6022ZM8.0266 19.7516L7.92862 19.926L7.92886 19.9261L8.0266 19.7516ZM8.5726 22.6552H8.3726V23.0278L8.68313 22.8219L8.5726 22.6552ZM15.4062 24.4451C16.4037 24.3743 17.388 24.2151 18.359 23.9676L18.2602 23.58C17.3123 23.8216 16.3515 23.977 15.3778 24.0461L15.4062 24.4451ZM18.2522 23.9654C19.4619 24.328 20.7384 24.4104 21.9847 24.2064L21.9201 23.8116C20.7337 24.0058 19.5186 23.9274 18.367 23.5822L18.2522 23.9654ZM21.9781 24.2073C22.0195 24.202 22.0612 24.1988 22.1029 24.1977L22.0931 23.7979C22.0374 23.7992 21.9819 23.8035 21.9267 23.8107L21.9781 24.2073ZM22.098 24.1978C22.4677 24.1978 22.9928 24.4147 23.8251 24.941L24.0389 24.603C23.2108 24.0793 22.5963 23.7978 22.098 23.7978V24.1978ZM24.132 24.772V23.9096H23.732V24.772H24.132ZM24.132 23.9099C24.1322 23.7954 24.163 23.6831 24.2214 23.5846L23.8772 23.3807C23.7824 23.5407 23.7322 23.7233 23.732 23.9093L24.132 23.9099ZM24.2214 23.5846C24.2797 23.4861 24.3634 23.405 24.4637 23.3499L24.2711 22.9993C24.108 23.0889 23.972 23.2206 23.8772 23.3807L24.2214 23.5846ZM24.4644 23.3495C24.8372 23.1429 25.1835 22.9018 25.499 22.6396L25.2434 22.332C24.9457 22.5794 24.62 22.8059 24.2704 22.9997L24.4644 23.3495ZM25.4996 22.6392C26.7481 21.5944 27.464 20.1926 27.464 18.6974H27.064C27.064 20.0582 26.4135 21.3528 25.2428 22.3324L25.4996 22.6392ZM27.464 18.6972C27.4635 18.2039 27.385 17.7137 27.2315 17.2449L26.8513 17.3695C26.9918 17.7982 27.0636 18.2464 27.064 18.6976L27.464 18.6972ZM27.2173 17.4025C27.5876 16.7188 27.8899 15.9975 28.111 15.2499L27.7274 15.1365C27.5145 15.8561 27.2232 16.5516 26.8655 17.2119L27.2173 17.4025ZM27.7535 15.3052C28.4314 16.3086 28.7973 17.4878 28.8 18.6978L29.2 18.697C29.1971 17.4066 28.807 16.1498 28.0849 15.0812L27.7535 15.3052ZM28.8 18.6974C28.8 20.572 27.916 22.3295 26.3728 23.6189L26.6292 23.9259C28.2528 22.5693 29.2 20.7037 29.2 18.6974H28.8ZM26.3731 23.6186C26.1145 23.8338 25.8429 24.0328 25.5599 24.2145L25.7761 24.5511C26.0729 24.3605 26.3577 24.1518 26.6289 23.9262L26.3731 23.6186ZM25.468 24.3828V26.4016H25.868V24.3828H25.468ZM25.468 26.4016C25.468 26.9228 24.8488 27.2421 24.4001 26.9196L24.1667 27.2444C24.8632 27.7451 25.868 27.2692 25.868 26.4016H25.468ZM24.4022 26.9211C23.8553 26.5173 23.2893 26.1399 22.7062 25.7904L22.5006 26.1336C23.0727 26.4764 23.628 26.8466 24.1646 27.2429L24.4022 26.9211ZM22.7047 25.7896C22.5307 25.6873 22.3499 25.5971 22.1635 25.5197L22.0101 25.8891C22.1795 25.9595 22.3439 26.0415 22.5021 26.1344L22.7047 25.7896ZM22.0573 25.5066C21.5912 25.576 21.1165 25.6113 20.6332 25.6122L20.634 26.0122C21.1363 26.0113 21.6304 25.9746 22.1163 25.9022L22.0573 25.5066ZM20.6336 25.6122C18.6959 25.6122 16.9084 25.0385 15.5048 24.0804L15.2792 24.4108C16.7512 25.4155 18.6177 26.0122 20.6336 26.0122V25.6122ZM5.06781 20.0517C2.61027 17.9992 1.2 15.2028 1.2 12.2196H0.8C0.8 15.3348 2.27373 18.2392 4.81139 20.3587L5.06781 20.0517ZM1.2 12.2196C1.2 6.12493 7.0385 1.2 14.2398 1.2V0.8C6.8839 0.8 0.8 5.84307 0.8 12.2196H1.2ZM14.2398 1.2C21.4411 1.2 27.281 6.12495 27.281 12.2196H27.681C27.681 5.84305 21.5957 0.8 14.2398 0.8V1.2ZM27.281 12.2196C27.281 18.3142 21.4412 23.2378 14.2398 23.2378V23.6378C21.5956 23.6378 27.681 18.5962 27.681 12.2196H27.281ZM14.2398 23.2378C13.4314 23.2378 12.6353 23.1765 11.8515 23.054L11.7897 23.4492C12.5944 23.575 13.4111 23.6378 14.2398 23.6378V23.2378ZM11.7753 23.0568C11.6615 23.0833 11.4908 23.1603 11.2844 23.2684C11.0715 23.38 10.8021 23.535 10.4835 23.7308C9.84601 24.1228 9.00538 24.6825 8.01466 25.3966L8.24854 25.721C9.23322 25.0113 10.0656 24.4573 10.693 24.0716C11.0069 23.8786 11.2679 23.7287 11.4701 23.6227C11.679 23.5132 11.8082 23.4598 11.8659 23.4464L11.7753 23.0568ZM8.01436 25.3968C7.4252 25.823 6.6012 25.4047 6.6012 24.7076H6.2012C6.2012 25.7493 7.41 26.3278 8.24884 25.7208L8.01436 25.3968ZM6.6012 24.7076V21.2636H6.2012V24.7076H6.6012ZM6.5064 21.0935C6.00274 20.782 5.52204 20.4348 5.068 20.0547L4.8112 20.3613C5.27989 20.7538 5.7761 21.1122 6.296 21.4337L6.5064 21.0935ZM11.8696 21.3292C11.9178 21.3292 11.9686 21.333 12.0221 21.341L12.0811 20.9454C12.0095 20.9347 11.939 20.9292 11.8696 20.9292V21.3292ZM12.0189 21.3405C12.753 21.4622 13.4959 21.5231 14.24 21.5224L14.2396 21.1224C13.5175 21.1231 12.7967 21.064 12.0843 20.9459L12.0189 21.3405ZM14.2398 21.5224C20.4617 21.5224 25.5096 17.3522 25.5096 12.2196H25.1096C25.1096 17.0634 20.3155 21.1224 14.2398 21.1224V21.5224ZM25.5096 12.2196C25.5096 7.08695 20.4617 2.9182 14.2398 2.9182V3.3182C20.3155 3.3182 25.1096 7.37585 25.1096 12.2196H25.5096ZM14.2398 2.9182C8.02074 2.9182 2.97 7.08834 2.97 12.2196H3.37C3.37 7.37726 8.16686 3.3182 14.2398 3.3182V2.9182ZM2.97 12.2196C2.97 14.6987 4.15191 17.0233 6.22391 18.7556L6.48049 18.4488C4.48689 16.7819 3.37 14.5649 3.37 12.2196H2.97ZM6.22422 18.7559C6.74723 19.1914 7.31545 19.5814 7.92862 19.926L8.12458 19.5772C7.53188 19.2442 6.98384 18.8679 6.48018 18.4485L6.22422 18.7559ZM7.92886 19.9261C8.20503 20.0808 8.3726 20.3652 8.3726 20.6686H8.7726C8.7726 20.216 8.52297 19.8004 8.12434 19.5771L7.92886 19.9261ZM8.3726 20.6686V22.6552H8.7726V20.6686H8.3726ZM8.68313 22.8219C9.46082 22.3062 10.0989 21.9309 10.6262 21.685C11.1561 21.4379 11.5582 21.3292 11.8682 21.3292V20.9292C11.4726 20.9292 11.0081 21.0655 10.4572 21.3224C9.90373 21.5805 9.24678 21.9682 8.46207 22.4885L8.68313 22.8219Z" fill="#FF7F50" mask="url(#path-3-outside-1_3_599)"/>
<path d="M8.875 14.2236C9.36565 14.2236 9.83621 14.0287 10.1831 13.6818C10.5301 13.3348 10.725 12.8643 10.725 12.3736C10.725 11.883 10.5301 11.4124 10.1831 11.0655C9.83621 10.7185 9.36565 10.5236 8.875 10.5236C8.38435 10.5236 7.91379 10.7185 7.56685 11.0655C7.21991 11.4124 7.025 11.883 7.025 12.3736C7.025 12.8643 7.21991 13.3348 7.56685 13.6818C7.91379 14.0287 8.38435 14.2236 8.875 14.2236ZM14.5618 14.2236C15.0525 14.2236 15.523 14.0287 15.8699 13.6818C16.2169 13.3348 16.4118 12.8643 16.4118 12.3736C16.4118 11.883 16.2169 11.4124 15.8699 11.0655C15.523 10.7185 15.0525 10.5236 14.5618 10.5236C14.0711 10.5236 13.6006 10.7185 13.2537 11.0655C12.9067 11.4124 12.7118 11.883 12.7118 12.3736C12.7118 12.8643 12.9067 13.3348 13.2537 13.6818C13.6006 14.0287 14.0711 14.2236 14.5618 14.2236ZM20.25 14.225C20.7407 14.225 21.2112 14.0301 21.5581 13.6832C21.9051 13.3362 22.1 12.8657 22.1 12.375C22.1 11.8844 21.9051 11.4138 21.5581 11.0669C21.2112 10.7199 20.7407 10.525 20.25 10.525C19.7593 10.525 19.2888 10.7199 18.9419 11.0669C18.5949 11.4138 18.4 11.8844 18.4 12.375C18.4 12.8657 18.5949 13.3362 18.9419 13.6832C19.2888 14.0301 19.7593 14.225 20.25 14.225Z" fill="#FF7F50" stroke="#FF7F50" stroke-width="0.2"/>
</svg>
