<svg width="23" height="22" viewBox="0 0 23 22" fill="none" xmlns="http://www.w3.org/2000/svg">
<path d="M11.822 19.0946C12.6316 19.0371 13.4305 18.9079 14.2186 18.7071C15.1884 18.9977 16.2117 19.0638 17.2109 18.9003C17.2506 18.8951 17.2905 18.892 17.3305 18.8911C17.687 18.8911 18.155 19.0958 18.837 19.527V18.8186C18.8372 18.6952 18.8704 18.5741 18.9333 18.4679C18.9963 18.3617 19.0865 18.2743 19.1946 18.2149C19.4914 18.0504 19.7674 17.8584 20.0192 17.6491C21.0128 16.8176 21.574 15.7102 21.574 14.5372C21.5736 14.1492 21.5119 13.7638 21.3911 13.3952C21.6901 12.8432 21.934 12.2613 22.1122 11.6587C22.6872 12.5097 22.9977 13.5102 23 14.5372C23 16.1311 22.2479 17.6192 20.9473 18.7059C20.7297 18.8869 20.5012 19.0544 20.263 19.2073V20.8656C20.263 21.436 19.596 21.7626 19.1257 21.4245C18.6807 21.0959 18.2201 20.7889 17.7456 20.5045C17.6092 20.4243 17.4674 20.3536 17.3213 20.2929C16.9303 20.3512 16.5324 20.3807 16.1276 20.3815C14.5038 20.3815 13.003 19.9008 11.822 19.0946ZM3.2361 15.7757C1.1845 14.0622 0 11.7208 0 9.2161C0 4.094 4.8967 0 10.8755 0C16.8544 0 21.7523 4.094 21.7523 9.2161C21.7523 14.3382 16.8544 18.4311 10.8755 18.4311C10.2032 18.4311 9.54078 18.3801 8.88835 18.2781C8.6066 18.3437 7.48075 19.0038 5.8581 20.1733C5.2716 20.5977 4.4367 20.1883 4.4367 19.4741V16.6451C4.01631 16.3851 3.61508 16.0953 3.2361 15.778M8.9286 16.5347C8.9769 16.5347 9.02673 16.5385 9.0781 16.5462C9.67217 16.6447 10.2734 16.694 10.8755 16.6934C15.9263 16.6934 19.9686 13.3136 19.9686 9.2161C19.9686 5.11865 15.9263 1.73995 10.8755 1.73995C5.82705 1.73995 1.7825 5.1198 1.7825 9.2161C1.7825 11.1976 2.72665 13.0629 4.39645 14.459C4.81812 14.8101 5.27658 15.1248 5.77185 15.4031C6.049 15.5584 6.22035 15.8459 6.22035 16.1564V17.7882C7.50375 16.9372 8.34785 16.5347 8.92745 16.5347" fill="#ACACAC"/>
<path d="M6.46875 10.7801C6.85 10.7801 7.21563 10.6287 7.48522 10.3591C7.7548 10.0895 7.90625 9.72385 7.90625 9.34261C7.90625 8.96136 7.7548 8.59572 7.48522 8.32614C7.21563 8.05656 6.85 7.90511 6.46875 7.90511C6.0875 7.90511 5.72187 8.05656 5.45228 8.32614C5.1827 8.59572 5.03125 8.96136 5.03125 9.34261C5.03125 9.72385 5.1827 10.0895 5.45228 10.3591C5.72187 10.6287 6.0875 10.7801 6.46875 10.7801ZM11.1401 10.7801C11.5213 10.7801 11.8869 10.6287 12.1565 10.3591C12.4261 10.0895 12.5775 9.72385 12.5775 9.34261C12.5775 8.96136 12.4261 8.59572 12.1565 8.32614C11.8869 8.05656 11.5213 7.90511 11.1401 7.90511C10.7588 7.90511 10.3932 8.05656 10.1236 8.32614C9.854 8.59572 9.70255 8.96136 9.70255 9.34261C9.70255 9.72385 9.854 10.0895 10.1236 10.3591C10.3932 10.6287 10.7588 10.7801 11.1401 10.7801ZM15.8125 10.7813C16.1937 10.7813 16.5594 10.6298 16.829 10.3602C17.0986 10.0906 17.25 9.725 17.25 9.34376C17.25 8.96251 17.0986 8.59687 16.829 8.32729C16.5594 8.05771 16.1937 7.90626 15.8125 7.90626C15.4313 7.90626 15.0656 8.05771 14.796 8.32729C14.5265 8.59687 14.375 8.96251 14.375 9.34376C14.375 9.725 14.5265 10.0906 14.796 10.3602C15.0656 10.6298 15.4313 10.7813 15.8125 10.7813Z" fill="#ACACAC"/>
</svg>
