<svg width="23" height="20" viewBox="0 0 23 20" fill="none" xmlns="http://www.w3.org/2000/svg">
<path fill-rule="evenodd" clip-rule="evenodd" d="M1.29534 0.237305C1.88936 -0.0477121 2.57932 -0.0764626 3.19396 0.153621L3.32446 0.206888L21.979 8.46905C22.8599 8.85922 23.2445 9.86083 22.8379 10.7062C22.6803 11.0338 22.4179 11.3032 22.0905 11.4763L21.979 11.5304L3.32446 19.7926C2.14988 20.3128 0.75822 19.8208 0.216105 18.6936C-0.0622049 18.115 -0.0705994 17.4523 0.188246 16.8699L0.247803 16.7464L3.76312 9.99973L0.247803 3.25303C-0.293974 2.21322 0.0828902 0.963102 1.0832 0.352501L1.18889 0.291651L1.29534 0.237305ZM19.3912 10.2005L5.8395 11.04L2.34287 17.7517L19.3912 10.2005ZM2.34287 2.24779L5.84009 8.95912L19.3918 9.7981L2.34287 2.24779Z" fill="white"/>
</svg>
