<svg width="12" height="10" viewBox="0 0 12 10" fill="none" xmlns="http://www.w3.org/2000/svg">
<path d="M5.99995 0.353546C7.03487 0.353511 8.02953 0.727682 8.77493 1.39745C9.52034 2.06721 9.95848 2.98043 9.99729 3.94523L9.99995 4.08517V8.43872H10.6666C10.8365 8.4389 11 8.4996 11.1235 8.60842C11.2471 8.71724 11.3214 8.86597 11.3314 9.02421C11.3414 9.18246 11.2862 9.33828 11.1771 9.45984C11.068 9.5814 10.9134 9.65952 10.7446 9.67825L10.6666 9.6826H1.33329C1.16337 9.68242 0.999931 9.62172 0.876374 9.51291C0.752817 9.40409 0.678463 9.25536 0.668505 9.09711C0.658547 8.93886 0.713736 8.78304 0.822796 8.66148C0.931856 8.53992 1.08656 8.4618 1.25529 8.44308L1.33329 8.43872H1.99995V4.08517C1.99995 3.09548 2.42138 2.14633 3.17153 1.44651C3.92167 0.746698 4.93909 0.353546 5.99995 0.353546ZM5.99995 1.59742C5.29271 1.59742 4.61443 1.85952 4.11433 2.32606C3.61424 2.79261 3.33329 3.42538 3.33329 4.08517V8.43872H8.66662V4.08517C8.66662 3.42538 8.38567 2.79261 7.88557 2.32606C7.38547 1.85952 6.7072 1.59742 5.99995 1.59742ZM6.34329 3.2412C6.49461 3.32616 6.60361 3.46367 6.64635 3.62354C6.6891 3.7834 6.6621 3.95256 6.57129 4.09387L6.17795 4.7071H6.98795C7.51129 4.7071 7.83462 5.2401 7.56529 5.65867L6.57195 7.20418C6.48089 7.3457 6.3333 7.44769 6.16164 7.48769C5.98999 7.5277 5.80832 7.50245 5.65662 7.4175C5.50492 7.33256 5.3956 7.19487 5.35271 7.03473C5.30983 6.87459 5.3369 6.70511 5.42795 6.56359L5.82262 5.95098H5.01195C4.89277 5.95099 4.77571 5.92149 4.67274 5.8655C4.56977 5.8095 4.48458 5.729 4.42588 5.63224C4.36717 5.53547 4.33704 5.42591 4.33858 5.31472C4.34011 5.20354 4.37326 5.09473 4.43462 4.99941L5.42795 3.4539C5.47305 3.38383 5.53251 3.32275 5.60293 3.27413C5.67335 3.22551 5.75336 3.19032 5.83836 3.17057C5.92337 3.15081 6.01172 3.14688 6.09836 3.159C6.185 3.17112 6.26823 3.19905 6.34329 3.2412Z" fill="#AB0000"/>
</svg>
